<?xml version="1.0" encoding="UTF-8"?>
<svg width="408px" height="264px" viewBox="0 0 408 264" version="1.1" xmlns="http://www.w3.org/2000/svg" xmlns:xlink="http://www.w3.org/1999/xlink">
    <!-- Generator: Sketch 55 (78076) - https://sketchapp.com -->
    <title>Vue.js_Logo_2 Copy 7</title>
    <desc>Created with Sketch.</desc>
    <g id="Page-1" stroke="none" stroke-width="1" fill="none" fill-rule="evenodd">
        <g id="Vue.js_Logo_2-Copy-7" transform="translate(204.000000, 131.500000) rotate(-90.000000) translate(-204.000000, -131.500000) translate(71.000000, -73.000000)" fill-rule="nonzero">
            <g id="Group" transform="translate(133.187100, 204.008800) scale(-1, 1) rotate(-180.000000) translate(-133.187100, -204.008800) translate(0.687100, 0.008800)">
                <g transform="translate(1.079998, 0.013333)" fill="#41B883" opacity="0.25">
                    <polygon id="Path" points="161.17623 406.962572 130.951652 354.611881 100.727074 406.962572 0.074924 406.962572 130.951652 180.274906 261.82838 406.962572"></polygon>
                    <polygon id="Path-Copy-2" points="161.613647 226.962572 131.389069 174.611881 101.164491 226.962572 0.512341 226.962572 131.389069 0.274906 262.265797 226.962572"></polygon>
                </g>
                <g transform="translate(0.312900, 89.008800)">
                    <polygon id="Path-Copy" fill="#41B883" points="161.380828 226.967105 131.15625 174.616414 100.931672 226.967105 0.279522 226.967105 131.15625 0.279439 262.032978 226.967105"></polygon>
                    <polygon id="Path" fill="#34495E" points="161.953813 226.309997 131.729236 173.959306 101.504658 226.309997 53.2031987 226.309997 131.729236 90.3000637 210.255272 226.309997"></polygon>
                </g>
            </g>
        </g>
    </g>
</svg>